<svg width="42" height="42" viewBox="0 0 42 42" fill="none" xmlns="http://www.w3.org/2000/svg">
<rect width="42" height="42" fill="white"/>
<path d="M21.0023 15.8723C18.1639 15.8723 15.8745 18.1617 15.8745 21C15.8745 23.8383 18.1639 26.1277 21.0023 26.1277C23.8406 26.1277 26.13 23.8383 26.13 21C26.13 18.1617 23.8406 15.8723 21.0023 15.8723ZM21.0023 24.3337C19.1681 24.3337 17.6686 22.8387 17.6686 21C17.6686 19.1613 19.1636 17.6663 21.0023 17.6663C22.8409 17.6663 24.336 19.1613 24.336 21C24.336 22.8387 22.8365 24.3337 21.0023 24.3337V24.3337ZM27.5358 15.6625C27.5358 16.3275 27.0003 16.8585 26.3398 16.8585C25.6748 16.8585 25.1437 16.323 25.1437 15.6625C25.1437 15.002 25.6793 14.4665 26.3398 14.4665C27.0003 14.4665 27.5358 15.002 27.5358 15.6625ZM30.932 16.8764C30.8561 15.2742 30.4902 13.8551 29.3164 12.6858C28.1472 11.5166 26.728 11.1506 25.1259 11.0703C23.4747 10.9766 18.5254 10.9766 16.8742 11.0703C15.2765 11.1462 13.8573 11.5121 12.6836 12.6814C11.5099 13.8506 11.1484 15.2698 11.0681 16.8719C10.9744 18.5232 10.9744 23.4724 11.0681 25.1236C11.144 26.7258 11.5099 28.1449 12.6836 29.3142C13.8573 30.4834 15.272 30.8494 16.8742 30.9297C18.5254 31.0234 23.4747 31.0234 25.1259 30.9297C26.728 30.8538 28.1472 30.4879 29.3164 29.3142C30.4857 28.1449 30.8516 26.7258 30.932 25.1236C31.0257 23.4724 31.0257 18.5276 30.932 16.8764V16.8764ZM28.7988 26.8953C28.4507 27.7701 27.7768 28.4439 26.8976 28.7965C25.5811 29.3186 22.4571 29.1981 21.0023 29.1981C19.5474 29.1981 16.419 29.3142 15.1069 28.7965C14.2322 28.4484 13.5583 27.7745 13.2058 26.8953C12.6836 25.5788 12.8041 22.4549 12.8041 21C12.8041 19.5451 12.6881 16.4167 13.2058 15.1047C13.5539 14.2299 14.2277 13.5561 15.1069 13.2035C16.4234 12.6814 19.5474 12.8019 21.0023 12.8019C22.4571 12.8019 25.5856 12.6858 26.8976 13.2035C27.7723 13.5516 28.4462 14.2255 28.7988 15.1047C29.3209 16.4212 29.2004 19.5451 29.2004 21C29.2004 22.4549 29.3209 25.5833 28.7988 26.8953Z" fill="#18B5DC"/>
</svg>
